# xmcd
#
# Track frame offsets:
#	150
#	14546
#	30236
#	43656
#	59569
#	72633
#	87287
#	100767
#	115572
#	129682
#	143747
#	159774
#	174125
#	189739
#	202566
#	218199
#	234251
#	249084
#
# Disc length: 3511 seconds
#
# Revision: 0
# Processed by: cddbd v1.5.2PL0 Copyright (c) Steve Scherf et al.
# Submitted via: EasyCDDAExtractor 16.0.6.1
#
DISCID=e30db512
DTITLE=Συλλογικός δίσκος - Ελληνικό Πάσχα 2
DYEAR=2012
DGENRE=Παραδοσιακή
TTITLE0=Άνευ ερμηνευτού - Να χαμηλώναν τα βουνά [πατινάδα, Νίκος Καρακώστας]
TTITLE1=Παπασιδέρης Γιώργος - Όλες οι μελαχροινές [συρτός, Γ. Παπασιδέρης-Χαρ.
TTITLE1=Βασιλειάδης]
TTITLE2=Μηττάκη Γεωργία - Νταβέλης [τσάμικος, παραδ.]
TTITLE3=Παπασιδέρης Γιώργος - Η Μαριωρή παντρεύεται [παραδ., Γ. Παπασιδέρης]
TTITLE4=Μηττάκη Γεωργία - Αυτά τα μάτια τα γλυκά [συρτός, Γ. Παπασιδέρης]
TTITLE5=Εσκενάζυ Ρόζα - Κόφ' την Ελένη την ελιά [τσάμικος, διασκ. Δημ. Σέμσης]
TTITLE6=Μηττάκη Γεωργία - Βρύση μου μαλαματένια [καλαματ., διασκ. Γ. Μηττάκη]
TTITLE7=Παπασιδέρης Γιώργος - Πού ήσουνα Γκόλφω [παραδοσιακό]
TTITLE8=Παπασιδέρης Γιώργος - Στην κεντησμένη σου ποδιά [συρτός, Γ. Παπασιδέρη
TTITLE8=ς]
TTITLE9=Βέρρα Τασία - Κυρά δασκάλα [συρτός, Γ. Παπασιδέρης]
TTITLE10=Μηττάκη Γεωργία - Τρισάϊδω [Γ. Μηττάκη]
TTITLE11=Παπασιδέρης Γιώργος - Πρωτομαγιά μού τά 'ριξες [Γ. Παπασιδέρης-Δημ. Σ
TTITLE11=έμσης]
TTITLE12=Ζάχος Δημήτρης - Ψηλά στην αετοράχη [συρτός, παραδοσιακό]
TTITLE13=Κολλητήρη Σοφία - Ας παν' να δουν τα μάτια μου [Σ. Κολλητήρη]
TTITLE14=Βέρρα Τασία - Διαμάντι δαχτυλίδι [Ηλίας Καλλιντίρης]
TTITLE15=Βέρρα Τασία - Χρυσούλα [Τασία Βέρρα]
TTITLE16=Λύδια Γιώτα - Στο πανηγύρι του χωριού [συρτός, Ευ. Σκουρτανιώτης-Π. Κ
TTITLE16=οκοντίνης]
TTITLE17=Πάνου Πόλυ - Όλες οι νιές παντρεύονται [τσάμικος, Γ. Παπασιδέρης]
EXTD=
EXTT0=
EXTT1=
EXTT2=
EXTT3=
EXTT4=
EXTT5=
EXTT6=
EXTT7=
EXTT8=
EXTT9=
EXTT10=
EXTT11=
EXTT12=
EXTT13=
EXTT14=
EXTT15=
EXTT16=
EXTT17=
PLAYORDER=
